<?xml version="1.0" standalone="no"?>
<!DOCTYPE svg PUBLIC "-//W3C//DTD SVG 20010904//EN"
 "http://www.w3.org/TR/2001/REC-SVG-20010904/DTD/svg10.dtd">
<svg version="1.0" xmlns="http://www.w3.org/2000/svg"
 width="837.000000pt" height="786.000000pt" viewBox="0 0 837.000000 786.000000"
 preserveAspectRatio="xMidYMid meet">
<metadata>
Created by potrace 1.10, written by Peter Selinger 2001-2011
</metadata>
<g transform="translate(0.000000,786.000000) scale(0.100000,-0.100000)"
fill="#000000" stroke="none">
<path d="M3735 7322 c-11 -9 -30 -30 -43 -46 -47 -61 -14 -166 67 -216 46 -28
48 -44 5 -47 -68 -6 -273 -36 -324 -48 -30 -7 -91 -20 -135 -30 -444 -99 -970
-363 -1329 -669 -158 -135 -413 -411 -526 -571 -35 -49 -72 -99 -81 -110 -18
-22 -160 -279 -198 -360 -83 -175 -104 -226 -146 -345 -68 -193 -120 -402
-151 -605 -25 -166 -27 -203 -27 -470 0 -266 2 -303 27 -450 74 -451 213 -839
429 -1200 252 -422 666 -838 1067 -1072 69 -40 132 -77 140 -83 66 -40 313
-159 390 -187 114 -41 281 -94 370 -118 36 -9 87 -23 114 -31 26 -8 64 -14 84
-14 19 0 72 -6 116 -14 45 -8 170 -20 280 -26 217 -13 500 -1 652 26 44 8 94
14 110 14 30 0 115 20 259 60 44 12 94 26 110 30 17 5 75 25 130 45 55 20 112
40 127 45 53 16 325 155 448 228 277 166 586 426 784 662 263 311 431 598 581
990 104 272 179 639 193 944 8 187 0 231 -52 271 -43 33 -114 35 -157 4 -54
-38 -67 -80 -74 -240 -13 -287 -80 -628 -173 -879 -107 -290 -261 -560 -467
-821 -120 -151 -346 -378 -463 -463 -16 -11 -65 -48 -108 -81 -247 -187 -663
-385 -944 -449 -41 -10 -102 -24 -135 -31 -355 -82 -728 -92 -1110 -29 -184
30 -385 79 -505 124 -47 17 -98 35 -114 40 -40 13 -311 147 -361 179 -68 43
-71 45 -116 70 -57 31 -280 199 -344 259 -27 26 -69 63 -92 83 -55 46 -245
257 -320 355 -124 163 -236 337 -287 446 -80 173 -95 208 -125 293 -18 50 -39
106 -47 125 -29 74 -85 303 -110 455 -25 146 -27 184 -28 440 -1 310 10 420
65 665 37 162 120 410 182 540 25 52 52 111 61 130 8 19 26 53 38 75 13 22 41
72 62 110 92 164 301 424 480 598 150 146 430 354 601 446 33 18 78 43 100 56
103 61 543 225 601 225 10 0 40 6 68 14 130 36 401 80 423 68 11 -7 6 -14 -24
-35 -79 -55 -106 -91 -111 -152 -4 -46 -1 -61 19 -89 24 -35 75 -66 108 -66
36 0 78 26 214 130 75 58 161 123 191 145 193 145 197 149 203 212 7 76 -16
100 -247 256 -284 191 -313 207 -363 207 -25 -1 -50 -8 -62 -18z"/>
<path d="M5064 6860 c-81 -18 -143 -112 -125 -189 22 -99 77 -145 173 -144 50
1 65 5 95 30 150 121 44 344 -143 303z"/>
<path d="M5703 6479 c-41 -26 -70 -73 -79 -126 -8 -54 21 -121 71 -158 31 -25
46 -29 100 -29 54 0 69 4 100 28 40 31 74 94 75 138 0 49 -31 109 -73 139 -34
25 -49 29 -101 29 -44 0 -70 -6 -93 -21z"/>
<path d="M6305 5971 c-166 -76 -127 -311 55 -329 40 -4 57 0 93 21 51 30 73
60 86 117 17 76 -22 151 -100 190 -47 25 -82 25 -134 1z"/>
<path d="M6718 5367 c-112 -52 -137 -200 -46 -284 37 -35 96 -56 136 -48 158
30 205 226 76 314 -41 28 -124 37 -166 18z"/>
<path d="M5380 4973 c-36 -13 -78 -28 -95 -33 -16 -4 -57 -18 -90 -30 -33 -11
-73 -25 -90 -30 -16 -4 -57 -18 -90 -30 -33 -11 -73 -25 -90 -30 -32 -9 -83
-26 -125 -42 -14 -6 -72 -25 -130 -44 -58 -18 -118 -39 -135 -45 -16 -6 -43
-15 -60 -19 -76 -22 -110 -39 -110 -56 0 -16 39 -43 267 -184 95 -59 97 -62
58 -107 -27 -31 -327 -347 -447 -471 -28 -29 -34 -31 -59 -22 -15 6 -48 26
-73 44 -25 18 -152 104 -281 192 -129 87 -254 170 -276 186 -23 15 -47 28 -52
28 -12 0 -66 -57 -163 -169 -108 -125 -276 -319 -444 -512 -88 -100 -209 -239
-268 -308 -60 -69 -123 -142 -140 -161 -53 -58 -59 -68 -50 -83 4 -8 47 -48
94 -88 47 -41 122 -107 167 -146 45 -40 90 -73 100 -73 19 0 30 12 501 548
171 194 281 312 293 312 16 0 101 -56 518 -338 143 -98 173 -107 204 -69 11
12 121 128 245 257 125 129 309 322 410 428 134 141 189 192 206 192 13 0 72
-30 132 -66 59 -36 117 -71 128 -77 11 -7 39 -24 63 -39 48 -31 87 -44 95 -31
3 4 -3 123 -13 263 -10 140 -26 370 -35 510 -9 140 -20 280 -23 310 -7 55 -7
55 -42 57 -19 0 -64 -10 -100 -24z"/>
<path d="M6919 4705 c-67 -44 -93 -149 -56 -222 51 -99 197 -120 274 -41 78
81 70 194 -18 257 -36 27 -50 31 -103 30 -47 0 -70 -6 -97 -24z"/>
</g>
</svg>
