<?xml version="1.0" standalone="no"?>
<!DOCTYPE svg PUBLIC "-//W3C//DTD SVG 20010904//EN"
 "http://www.w3.org/TR/2001/REC-SVG-20010904/DTD/svg10.dtd">
<svg version="1.0" xmlns="http://www.w3.org/2000/svg"
 width="900.000000pt" height="477.000000pt" viewBox="0 0 900.000000 477.000000"
 preserveAspectRatio="xMidYMid meet">
<metadata>
Created by potrace 1.10, written by Peter Selinger 2001-2011
</metadata>
<g transform="translate(0.000000,477.000000) scale(0.100000,-0.100000)"
fill="#000000" stroke="none">
<path d="M1732 3228 c-14 -14 -16 -54 -2 -63 28 -17 5 -32 -67 -44 -247 -43
-447 -167 -604 -378 -62 -83 -84 -122 -122 -218 -41 -104 -67 -241 -67 -346 0
-56 25 -217 43 -279 71 -240 265 -469 491 -579 62 -30 144 -62 176 -68 14 -2
52 -11 86 -20 74 -18 297 -13 389 10 217 55 415 184 543 356 67 90 74 102 103
161 50 105 69 171 89 300 7 41 14 84 17 96 3 13 -4 31 -19 48 -20 24 -26 26
-51 17 -24 -9 -27 -15 -27 -58 0 -131 -60 -332 -135 -448 -23 -37 -121 -151
-155 -182 -42 -39 -182 -128 -230 -147 -25 -10 -60 -24 -78 -32 -18 -8 -40
-14 -50 -14 -9 0 -35 -7 -57 -15 -55 -20 -285 -20 -340 0 -22 8 -48 15 -57 15
-10 0 -32 6 -50 14 -18 8 -58 24 -88 36 -121 49 -285 187 -364 307 -38 58 -96
176 -96 196 0 7 -4 17 -9 22 -16 16 -33 122 -38 235 -12 288 115 554 350 729
79 58 247 141 290 141 12 1 33 7 47 15 28 16 110 20 110 5 0 -5 -9 -14 -20
-20 -32 -17 -21 -80 15 -80 15 0 176 124 187 144 10 17 -6 56 -23 56 -9 0 -76
46 -116 79 -20 18 -58 22 -71 9z"/>
<path d="M2122 3084 c-26 -10 -32 -19 -32 -42 0 -55 68 -83 103 -44 48 53 -4
115 -71 86z"/>
<path d="M2317 2972 c-35 -39 -9 -102 42 -102 25 0 60 36 60 60 0 25 -36 60
-62 60 -13 0 -31 -8 -40 -18z"/>
<path d="M7443 2875 c-39 -6 -78 -16 -85 -22 -7 -6 -26 -13 -41 -17 -38 -9
-139 -111 -164 -166 -51 -111 -53 -120 -53 -215 0 -95 2 -103 53 -215 24 -52
108 -137 158 -161 100 -47 109 -49 227 -49 82 0 124 4 137 13 26 18 60 26 72
18 5 -3 29 -32 52 -63 45 -60 62 -68 87 -43 9 8 26 15 39 15 12 0 33 9 46 20
l24 19 -67 65 c-70 66 -82 93 -49 113 22 14 45 57 72 135 32 96 22 253 -22
328 -5 8 -13 24 -18 35 -17 40 -107 124 -161 151 -46 23 -189 56 -225 53 -5
-1 -42 -7 -82 -14z m216 -176 c53 -27 85 -61 112 -116 30 -62 30 -204 0 -267
-46 -94 -119 -136 -238 -136 -119 0 -187 39 -234 136 -28 58 -31 234 -5 263 9
10 16 22 16 27 0 16 61 74 99 94 53 28 196 28 250 -1z"/>
<path d="M3180 2860 c0 -10 5 -22 10 -25 6 -3 10 -14 10 -24 0 -10 7 -24 15
-31 8 -7 15 -22 15 -34 0 -12 7 -31 15 -42 8 -10 15 -28 15 -39 0 -11 6 -29
14 -40 7 -11 16 -31 19 -45 5 -24 10 -38 57 -160 12 -30 25 -66 30 -80 5 -14
18 -50 30 -80 12 -30 24 -66 27 -80 3 -14 12 -34 19 -45 8 -11 14 -31 14 -46
0 -46 27 -59 122 -59 l85 0 15 33 c19 39 38 93 45 127 3 14 12 34 19 45 8 11
14 29 14 40 0 12 7 30 15 41 8 10 15 27 15 36 0 17 19 67 46 121 8 16 14 35
14 42 0 8 6 29 14 47 8 18 21 52 30 76 38 101 50 129 69 168 32 64 23 72 -79
70 l-87 -2 -20 -60 c-11 -32 -26 -74 -33 -92 -8 -18 -14 -41 -14 -50 0 -10 -6
-26 -14 -37 -7 -11 -16 -31 -19 -45 -5 -23 -10 -40 -42 -130 -25 -68 -45 -143
-45 -165 0 -22 -28 -55 -47 -55 -6 0 -14 21 -18 48 -6 47 -16 85 -40 152 -7
19 -18 51 -24 70 -7 19 -17 50 -21 69 -5 18 -13 38 -19 44 -6 6 -11 21 -11 33
0 12 -6 35 -14 51 -21 42 -38 94 -43 131 -3 17 -8 32 -12 33 -3 1 -48 3 -98 4
-86 4 -93 3 -93 -15z"/>
<path d="M4243 2872 c-5 -1 -7 -190 -6 -420 l1 -417 246 -3 246 -2 0 81 0 81
-162 -4 -163 -3 0 100 0 100 45 0 c25 -1 90 -3 145 -5 l100 -5 0 80 0 80 -147
-4 -148 -4 0 97 c0 69 3 96 13 97 6 1 81 0 165 -1 l153 -2 -3 77 -3 78 -237 1
c-131 0 -241 0 -245 -2z"/>
<path d="M5024 2868 c-3 -4 -5 -193 -5 -420 l0 -413 87 -3 c54 -2 90 1 94 8 3
6 3 38 -1 73 -4 34 -9 113 -10 176 -4 100 -2 115 14 125 24 16 45 -1 78 -60
14 -27 36 -65 48 -84 11 -19 25 -44 31 -55 6 -11 19 -33 30 -50 11 -16 31 -53
45 -82 l26 -52 95 -3 c52 -2 99 -1 104 0 18 7 10 32 -23 69 -29 35 -97 129
-122 171 -5 9 -31 45 -57 78 -51 65 -50 75 3 87 84 20 144 111 136 206 -2 31
-10 72 -18 91 -15 39 -79 110 -98 110 -6 0 -22 6 -34 14 -17 11 -70 15 -220
18 -110 2 -201 0 -203 -4z m314 -143 c63 -8 92 -38 92 -96 0 -65 -29 -87 -132
-101 -63 -8 -90 -8 -100 -1 -14 12 -17 180 -3 202 5 9 21 11 49 7 22 -3 65 -8
94 -11z"/>
<path d="M5831 2870 c-4 -3 -7 -36 -6 -75 l0 -70 97 0 c53 0 101 -4 105 -10 5
-5 6 -158 2 -340 -3 -181 -4 -333 -2 -337 2 -5 42 -8 89 -8 l84 0 0 341 c-1
188 2 344 5 348 4 3 51 4 106 2 l100 -3 -3 77 -3 78 -283 1 c-156 0 -287 -1
-291 -4z"/>
<path d="M6648 2869 c-2 -5 -2 -196 0 -424 l2 -415 90 0 90 0 -2 423 -3 422
-87 1 c-48 1 -88 -2 -90 -7z"/>
<path d="M2492 2820 c-24 -23 -28 -50 -12 -81 8 -14 21 -19 49 -19 34 0 40 4
51 31 11 27 11 33 -7 57 -25 34 -52 38 -81 12z"/>
<path d="M2613 2634 c-29 -33 -29 -49 1 -79 27 -27 60 -24 88 9 24 29 22 43
-8 71 -34 32 -53 31 -81 -1z"/>
<path d="M2205 2523 c-66 -34 -87 -43 -105 -43 -10 0 -31 -7 -46 -15 -16 -8
-40 -15 -54 -15 -30 0 -70 -25 -70 -44 0 -7 17 -18 38 -24 20 -6 46 -18 57
-26 19 -14 17 -18 -55 -93 -77 -80 -103 -95 -123 -70 -7 8 -47 40 -89 72 -57
42 -82 55 -97 50 -12 -3 -21 -11 -21 -16 0 -12 -157 -196 -242 -284 l-58 -60
52 -47 c60 -54 79 -58 101 -25 9 13 48 61 87 107 39 46 78 94 87 107 19 29 40
29 78 -2 67 -56 149 -115 156 -113 6 3 94 97 216 231 l52 58 51 -38 c27 -20
50 -41 50 -45 0 -4 7 -8 16 -8 14 0 15 10 10 68 -3 37 -9 118 -12 180 -6 106
-8 112 -28 111 -12 0 -34 -8 -51 -16z"/>
<path d="M2680 2440 c-52 -52 13 -116 81 -80 23 13 26 62 3 84 -21 22 -60 20
-84 -4z"/>
<path d="M3741 1757 c-6 -6 -11 -19 -11 -28 0 -10 -16 -45 -36 -79 -46 -77
-39 -89 41 -71 45 10 63 10 86 0 51 -21 56 1 17 68 -19 32 -40 70 -47 85 -16
32 -34 41 -50 25z m43 -96 c9 -15 -23 -36 -36 -23 -5 5 -7 15 -4 21 9 13 33
14 40 2z"/>
<path d="M4469 1739 l-29 -31 -21 26 c-19 25 -48 34 -62 20 -8 -8 12 -47 29
-57 23 -13 16 -53 -11 -71 -14 -9 -25 -25 -25 -36 0 -30 40 -25 66 7 l22 28
31 -34 c17 -18 36 -31 43 -29 23 8 20 39 -6 65 -32 32 -32 43 -1 77 29 31 32
51 9 60 -10 4 -26 -5 -45 -25z"/>
<path d="M4732 1754 c-96 -48 -95 -141 1 -184 37 -17 44 -17 76 -4 53 22 71
47 71 98 0 39 -4 48 -32 70 -45 34 -77 39 -116 20z m89 -63 c23 -19 23 -21 7
-48 -22 -37 -68 -43 -97 -12 -26 28 -26 34 -1 59 25 25 61 26 91 1z"/>
<path d="M6075 1763 c-54 -13 -74 -76 -32 -102 12 -8 37 -17 56 -20 19 -3 34
-10 35 -16 1 -14 -64 -19 -77 -6 -19 19 -37 12 -37 -12 0 -18 9 -28 38 -39 34
-13 41 -13 78 3 77 32 70 109 -11 109 -20 0 -35 6 -38 15 -8 20 11 29 28 15
21 -18 45 -5 45 25 0 18 -5 25 -19 25 -11 0 -25 2 -33 4 -7 2 -22 1 -33 -1z"/>
<path d="M7400 1763 c-26 -10 -60 -46 -60 -63 0 -24 54 -60 90 -60 21 0 30 -5
30 -16 0 -14 -8 -16 -42 -11 -24 2 -50 6 -58 8 -9 3 -16 -5 -18 -18 -3 -17 3
-24 25 -29 15 -4 33 -11 39 -15 14 -11 83 16 101 40 32 42 5 81 -57 81 -18 0
-33 6 -37 15 -8 23 5 31 27 17 34 -21 50 -15 50 18 0 22 -5 30 -17 30 -10 0
-27 2 -38 5 -11 2 -27 1 -35 -2z"/>
<path d="M3918 1678 c-2 -46 -2 -89 0 -95 7 -23 31 -14 47 17 13 25 21 30 54
30 26 0 44 7 59 23 28 30 28 58 -1 85 -19 18 -35 22 -89 22 l-66 0 -4 -82z
m117 12 c0 -10 -12 -16 -37 -18 -37 -3 -51 12 -31 32 13 13 68 2 68 -14z"/>
<path d="M4154 1747 c-3 -8 -4 -49 -2 -93 l3 -79 75 0 c62 0 75 3 78 17 3 14
-6 17 -52 20 -58 3 -78 21 -29 26 15 2 34 5 42 8 23 8 -8 34 -40 34 -19 0 -29
5 -29 15 0 12 8 14 39 9 33 -5 41 -3 51 15 6 12 8 26 5 31 -10 16 -135 13
-141 -3z"/>
<path d="M4947 1753 c-5 -7 -11 -140 -8 -171 1 -8 10 -12 24 -10 15 2 22 10
22 26 1 26 20 42 53 42 38 0 24 34 -16 38 -45 5 -40 22 6 22 41 0 62 14 62 42
0 16 -9 18 -69 18 -39 0 -72 -3 -74 -7z"/>
<path d="M5230 1692 c0 -39 -3 -77 -6 -85 -3 -8 2 -22 11 -31 14 -13 20 -14
31 -5 11 9 14 33 12 98 -3 81 -4 86 -25 89 -22 3 -23 0 -23 -66z"/>
<path d="M5335 1668 c0 -92 0 -93 25 -93 22 0 25 5 28 43 2 23 7 42 11 42 4 0
22 -21 40 -46 24 -33 39 -44 55 -42 20 3 21 9 21 93 0 83 -1 90 -20 90 -17 0
-20 -7 -20 -47 0 -25 -3 -49 -7 -53 -4 -4 -26 18 -50 49 -27 35 -51 56 -63 56
-19 0 -20 -7 -20 -92z"/>
<path d="M5570 1740 c0 -11 4 -28 10 -38 5 -9 21 -43 35 -75 23 -53 28 -58 53
-55 22 2 32 14 59 68 17 36 35 77 38 93 6 24 4 27 -17 27 -18 0 -28 -9 -41
-38 -9 -21 -17 -46 -17 -55 0 -48 -43 -19 -56 38 -8 39 -22 55 -45 55 -12 0
-19 -7 -19 -20z"/>
<path d="M5820 1740 c-6 -11 -10 -53 -8 -93 l3 -72 75 0 c63 0 75 3 78 18 3
14 -4 17 -47 17 -38 0 -51 4 -51 14 0 9 12 16 33 18 44 4 44 32 -1 36 -47 5
-35 27 14 27 35 0 39 3 42 28 l3 27 -65 0 c-55 0 -67 -3 -76 -20z"/>
<path d="M6216 1751 c-11 -17 5 -40 36 -50 30 -11 31 -11 24 -66 -5 -47 -4
-56 13 -64 29 -16 44 9 36 58 -9 55 1 83 28 79 17 -2 23 3 25 25 l3 27 -80 0
c-44 0 -82 -4 -85 -9z"/>
<path d="M6416 1752 c-2 -4 -1 -14 5 -22 5 -8 9 -47 9 -86 0 -54 4 -73 15 -78
18 -6 38 26 29 48 -3 8 -1 23 4 33 10 16 11 16 21 -8 15 -40 61 -50 61 -13 0
8 7 14 15 14 10 0 15 -11 15 -35 0 -28 4 -35 19 -35 29 0 33 12 35 106 2 74 0
84 -15 84 -22 0 -43 -21 -61 -60 -18 -42 -42 -38 -78 15 -29 42 -61 58 -74 37z"/>
<path d="M6710 1665 l0 -95 75 0 c68 0 75 2 75 19 0 17 -8 20 -52 23 -64 4
-80 28 -18 28 34 0 41 3 38 18 -2 12 -14 18 -41 20 -37 3 -49 15 -24 25 7 3
25 3 39 0 27 -5 62 21 55 41 -2 6 -33 12 -75 14 l-72 3 0 -96z"/>
<path d="M6907 1754 c-3 -3 -3 -13 0 -21 3 -8 6 -47 7 -86 1 -65 3 -72 21 -72
17 0 20 7 21 40 0 22 2 44 2 49 2 11 43 -30 67 -67 13 -21 25 -27 44 -25 26 3
26 4 26 93 0 89 0 90 -25 90 -23 0 -25 -4 -28 -47 -2 -27 -6 -48 -10 -48 -4 0
-25 23 -45 50 -34 45 -63 61 -80 44z"/>
<path d="M7136 1751 c-10 -16 4 -37 32 -47 25 -9 27 -13 27 -69 0 -58 1 -60
27 -63 27 -3 27 -3 30 64 3 63 5 69 28 74 16 4 26 14 28 28 3 21 0 22 -82 22
-47 0 -87 -4 -90 -9z"/>
</g>
</svg>
