<svg preserveAspectRatio="xMidYMid meet" viewBox="262.92731707317074 126.39195119999998 362.9268292682927 325.008" xmlns="http://www.w3.org/2000/svg" version="1.0" style="max-height: 500px" width="362.9268292682927" height="325.008">
<metadata>
Created by potrace 1.10, written by Peter Selinger 2001-2011
</metadata>
<g stroke="none" fill="#ffffff" transform="translate(0.000000,732.000000) scale(0.100000,-0.100000)">
<path d="M4256 5864 c-22 -22 -20 -60 6 -83 25 -24 28 -22 -87 -46 -44 -9&#10;-114 -25 -155 -37 -79 -21 -278 -113 -345 -160 -22 -16 -51 -36 -65 -46 -192&#10;-135 -386 -405 -465 -647 -63 -193 -83 -444 -49 -624 17 -89 65 -254 89 -306&#10;39 -86 58 -123 76 -150 10 -16 23 -39 28 -50 5 -11 38 -56 74 -100 89 -110&#10;204 -217 306 -282 60 -39 243 -133 260 -133 6 0 25 -6 43 -14 120 -50 303 -80&#10;458 -73 350 14 646 140 896 383 55 54 171 199 187 234 4 8 16 29 27 45 11 17&#10;24 39 29 50 65 142 78 175 97 245 19 70 53 283 54 333 0 51 -25 87 -60 87 -43&#10;0 -60 -28 -60 -96 0 -90 -39 -282 -77 -379 -16 -42 -76 -166 -96 -200 -65&#10;-108 -197 -256 -292 -327 -103 -77 -263 -168 -295 -168 -5 0 -24 -6 -42 -14&#10;-159 -68 -408 -94 -575 -60 -168 33 -228 53 -348 111 -146 71 -234 134 -336&#10;240 -164 170 -267 361 -320 598 -19 81 -19 389 0 470 71 314 214 543 455 728&#10;144 110 237 153 477 221 55 16 129 21 129 10 0 -3 -9 -17 -20 -31 -11 -14 -20&#10;-34 -20 -44 0 -22 34 -59 53 -59 15 0 88 47 131 85 16 14 32 25 36 25 16 0 90&#10;81 90 99 0 22 -38 53 -154 129 -82 54 -114 62 -140 36z"/>
<path d="M4782 5667 c-33 -35 -29 -78 9 -106 39 -29 73 -22 99 22 25 40 25 39&#10;-6 76 -32 38 -71 41 -102 8z"/>
<path d="M5061 5514 c-29 -36 -26 -60 9 -95 32 -32 57 -33 93 -1 26 23 23 87&#10;-5 106 -34 24 -73 20 -97 -10z"/>
<path d="M5305 5305 c-34 -33 -33 -77 1 -104 35 -27 65 -27 92 2 31 33 29 80&#10;-4 106 -35 27 -59 26 -89 -4z"/>
<path d="M5476 5059 c-19 -15 -26 -30 -26 -53 0 -42 26 -66 73 -66 31 0 41 5&#10;56 31 22 36 17 62 -17 89 -32 25 -53 25 -86 -1z"/>
<path d="M4880 4889 c-47 -17 -98 -34 -115 -39 -30 -8 -71 -22 -135 -46 -19&#10;-7 -47 -15 -62 -18 -19 -4 -28 -13 -28 -26 0 -17 19 -32 75 -58 11 -5 27 -18&#10;37 -28 15 -18 11 -24 -80 -122 -56 -59 -105 -102 -116 -102 -10 0 -76 38 -145&#10;85 -70 47 -132 85 -139 85 -6 0 -52 -48 -104 -107 -51 -60 -95 -110 -99 -113&#10;-3 -3 -32 -36 -64 -75 -33 -38 -74 -86 -91 -105 -52 -56 -74 -87 -73 -102 0&#10;-17 121 -118 141 -118 16 0 53 38 162 165 110 129 156 175 172 175 8 0 34 -14&#10;57 -30 151 -110 197 -140 210 -140 7 0 94 83 192 185 97 102 181 185 186 185&#10;6 0 41 -21 79 -46 38 -25 74 -43 80 -39 14 9 13 75 -7 283 -14 151 -20 182&#10;-32 182 -9 -1 -54 -15 -101 -31z"/>
<path d="M5593 4809 c-25 -9 -53 -46 -53 -70 0 -33 39 -69 75 -69 24 0 39 7&#10;54 26 26 33 26 54 1 86 -23 30 -47 38 -77 27z"/>
<path d="M6970 2663 c-195 -26 -388 -169 -448 -333 -42 -112 -54 -185 -48&#10;-280 12 -205 82 -344 226 -455 32 -25 64 -45 71 -45 7 0 20 -6 28 -14 57 -49&#10;362 -70 456 -31 17 6 46 15 65 18 33 6 38 3 90 -57 81 -91 92 -99 127 -82 56&#10;28 104 46 122 46 43 0 34 24 -43 115 -28 33 -53 62 -56 65 -43 43 -44 47 -13&#10;87 81 106 118 229 117 388 -1 182 -45 296 -159 410 -112 112 -230 162 -400&#10;169 -55 2 -116 2 -135 -1z m201 -230 c151 -48 239 -160 255 -328 7 -66 -14&#10;-172 -47 -236 -29 -58 -92 -116 -155 -144 -50 -23 -74 -27 -155 -27 -89 -1&#10;-102 2 -163 31 -92 45 -138 103 -177 223 -26 84 -25 169 6 253 32 90 67 139&#10;128 178 98 64 208 82 308 50z"/>
<path d="M1114 2646 c-5 -14 5 -48 46 -156 38 -100 51 -134 75 -205 13 -38 34&#10;-95 45 -125 12 -30 25 -66 30 -80 5 -14 18 -50 30 -80 12 -30 25 -68 30 -85 5&#10;-16 18 -55 30 -85 12 -30 25 -66 30 -80 5 -14 18 -50 30 -80 12 -30 25 -66 30&#10;-80 4 -14 15 -42 24 -62 l16 -38 125 0 124 0 18 33 c14 27 32 74 83 217 5 14&#10;18 50 30 80 12 30 25 66 30 80 5 14 18 50 30 80 11 30 32 87 45 125 13 39 33&#10;95 45 125 12 30 25 66 30 80 5 14 18 50 30 80 12 30 25 66 30 80 5 14 18 50&#10;30 80 13 30 23 66 24 80 l1 25 -112 3 c-102 2 -114 1 -133 -18 -11 -11 -20&#10;-29 -20 -40 0 -10 -6 -34 -14 -52 -23 -54 -63 -166 -76 -213 -5 -16 -25 -75&#10;-45 -130 -20 -55 -40 -113 -45 -130 -4 -16 -14 -46 -21 -65 -6 -19 -17 -51&#10;-24 -70 -33 -93 -51 -133 -59 -132 -7 1 -86 213 -102 277 -3 11 -10 29 -15 40&#10;-11 26 -38 102 -49 140 -5 17 -25 75 -45 130 -20 55 -40 114 -45 130 -18 63&#10;-42 120 -53 127 -7 4 -61 8 -120 8 -83 0 -109 -3 -113 -14z"/>
<path d="M2552 2648 c-17 -17 -17 -1129 0 -1146 16 -16 620 -17 649 -2 17 9&#10;19 22 19 98 0 55 -4 92 -12 100 -9 9 -71 12 -215 12 l-204 0 3 128 3 127 185&#10;5 185 5 0 100 0 100 -185 5 -185 5 -3 128 -3 127 196 0 c116 0 204 4 216 10&#10;17 9 19 22 19 98 0 55 -4 92 -12 100 -17 17 -639 17 -656 0z"/>
<path d="M3625 2648 c-3 -7 -4 -269 -3 -583 l3 -570 115 0 115 0 5 250 5 250&#10;35 0 c24 0 37 -6 45 -20 6 -11 22 -38 36 -60 14 -22 29 -47 32 -55 4 -8 16&#10;-28 27 -45 11 -16 24 -39 30 -50 6 -11 19 -33 30 -50 11 -16 24 -39 30 -50 6&#10;-11 19 -33 30 -50 11 -16 23 -37 27 -45 3 -8 18 -30 31 -48 l25 -33 126 3&#10;c126 3 126 3 123 27 -1 13 -16 40 -32 61 -17 21 -30 41 -30 45 0 4 -13 24 -30&#10;45 -16 21 -30 40 -30 43 0 2 -43 68 -95 147 -53 79 -94 148 -92 154 2 6 14 13&#10;27 14 50 8 141 79 171 135 20 36 23 56 24 147 0 91 -4 112 -24 154 -43 88&#10;-110 142 -215 173 -72 22 -533 31 -541 11z m485 -218 c95 -48 94 -182 0 -230&#10;-35 -18 -56 -20 -143 -18 l-102 3 -3 119 c-1 66 0 126 2 133 4 9 32 13 106 13&#10;81 0 108 -4 140 -20z"/>
<path d="M4734 2647 c-3 -8 -3 -56 -2 -108 l3 -94 133 -3 132 -3 0 -459 c0&#10;-408 2 -460 16 -475 13 -13 35 -15 118 -13 l101 3 5 470 c3 259 7 471 8 473 1&#10;1 57 2 125 2 82 0 127 4 135 12 15 15 16 161 2 189 -10 18 -25 19 -391 19&#10;-306 0 -381 -3 -385 -13z"/>
<path d="M5867 2653 c-4 -3 -7 -264 -7 -579 0 -512 2 -572 16 -578 20 -8 188&#10;-8 208 0 14 6 16 66 16 579 0 513 -2 573 -16 579 -21 8 -209 8 -217 -1z"/>
<path d="M1832 1040 c-71 -148 -69 -140 -39 -140 14 0 28 4 32 9 3 5 34 13 70&#10;16 56 6 67 5 91 -14 27 -21 44 -20 44 3 0 12 -25 61 -79 161 -30 54 -46 75&#10;-56 75 -5 -1 -34 -50 -63 -110z m91 -15 c23 -32 15 -45 -29 -45 -39 0 -39 1&#10;-19 40 19 36 25 37 48 5z"/>
<path d="M3212 1130 c-38 -23 -72 -75 -72 -110 0 -62 80 -130 152 -130 73 0&#10;143 74 134 143 -6 51 -29 84 -72 102 -50 21 -103 19 -142 -5z m139 -59 c34&#10;-35 36 -59 8 -95 -17 -21 -29 -26 -68 -26 -65 0 -91 20 -91 71 0 34 5 42 33&#10;59 46 28 83 26 118 -9z"/>
<path d="M5033 1131 c-27 -17 -33 -27 -33 -54 0 -45 23 -63 93 -72 60 -7 81&#10;-25 58 -48 -14 -14 -99 -13 -114 2 -18 18 -37 12 -37 -11 0 -31 50 -58 105&#10;-58 61 0 105 37 105 90 0 47 -14 59 -78 67 -61 7 -77 16 -68 38 5 15 15 17 60&#10;11 42 -4 55 -3 59 8 16 41 -97 60 -150 27z"/>
<path d="M6857 1134 c-15 -8 -32 -25 -36 -37 -8 -21 4 -76 17 -78 125 -21 137&#10;-25 137 -43 0 -29 -55 -41 -101 -21 -28 11 -40 12 -50 4 -21 -17 -17 -25 22&#10;-48 22 -13 52 -21 81 -21 38 0 50 5 79 34 59 59 36 112 -54 123 -60 7 -95 30&#10;-68 45 8 5 39 7 68 6 42 -2 53 0 56 13 7 35 -100 51 -151 23z"/>
<path d="M2128 1134 c-5 -4 -8 -58 -8 -121 0 -106 1 -113 20 -113 13 0 22 9&#10;26 28 3 15 7 33 10 40 2 8 23 12 59 12 49 0 60 4 86 29 34 34 37 69 10 102&#10;-17 21 -29 24 -108 27 -48 2 -91 0 -95 -4z m166 -60 c10 -27 -3 -34 -65 -34&#10;-51 0 -59 3 -59 18 0 28 9 32 66 32 38 0 53 -4 58 -16z"/>
<path d="M2442 1128 c-8 -8 -12 -47 -12 -109 0 -127 4 -131 114 -127 80 3 81&#10;3 84 31 l3 27 -70 0 c-38 0 -72 4 -76 9 -8 14 35 41 66 41 15 0 32 6 38 14 19&#10;23 -12 40 -59 32 -32 -5 -42 -3 -47 10 -9 24 9 35 71 38 58 3 84 16 72 35 -10&#10;15 -169 14 -184 -1z"/>
<path d="M2725 1130 c-4 -6 7 -28 24 -49 17 -21 31 -46 31 -56 0 -9 -16 -37&#10;-35 -62 -20 -26 -34 -51 -32 -57 8 -24 31 -15 72 28 l44 45 27 -32 c36 -43 59&#10;-58 78 -51 18 7 10 27 -35 85 -16 20 -29 42 -29 48 0 5 14 26 31 46 53 60 17&#10;91 -41 34 l-31 -32 -33 32 c-32 31 -60 39 -71 21z"/>
<path d="M3527 1133 c-4 -3 -7 -55 -7 -113 0 -80 4 -111 14 -119 17 -15 25 -4&#10;30 40 4 34 28 59 57 59 28 0 49 11 49 25 0 18 -34 28 -69 20 -20 -4 -30 -2&#10;-34 8 -10 26 9 38 67 41 62 3 71 8 63 31 -5 12 -23 15 -85 15 -43 0 -82 -3&#10;-85 -7z"/>
<path d="M3923 1128 c-13 -16 -9 -216 4 -229 23 -23 34 19 31 127 -3 105 -12&#10;131 -35 102z"/>
<path d="M4068 1133 c-2 -5 -2 -59 0 -120 3 -101 6 -113 22 -113 22 0 30 19&#10;30 76 0 58 16 57 66 -4 93 -116 114 -107 114 48 0 89 -3 109 -16 114 -27 10&#10;-34 -3 -34 -69 0 -35 -4 -66 -8 -69 -4 -2 -30 23 -57 56 -65 78 -105 106 -117&#10;81z"/>
<path d="M4392 1132 c-17 -11 67 -211 96 -230 30 -20 55 -1 82 60 12 29 34 77&#10;47 106 17 36 22 57 15 64 -22 22 -47 -3 -76 -72 -39 -96 -50 -102 -75 -44 -12&#10;25 -21 51 -21 56 0 13 -39 68 -48 68 -4 0 -13 -4 -20 -8z"/>
<path d="M4732 1128 c-15 -15 -16 -191 -2 -219 9 -16 22 -19 89 -19 57 0 82 4&#10;91 15 25 30 4 44 -66 47 -38 2 -69 8 -71 14 -4 12 37 31 77 36 17 2 25 9 25&#10;23 0 16 -7 20 -40 21 -62 2 -65 3 -65 19 0 20 36 33 80 28 41 -4 65 9 57 31&#10;-5 13 -22 16 -85 16 -47 0 -83 -5 -90 -12z"/>
<path d="M5274 1125 c-9 -23 5 -35 42 -35 l34 0 0 -89 c0 -63 4 -92 14 -100&#10;24 -20 35 10 38 99 l3 85 38 6 c44 7 52 13 44 34 -9 22 -205 22 -213 0z"/>
<path d="M5559 1133 c-6 -36 5 -221 13 -231 19 -22 37 6 40 61 l3 52 38 -37&#10;c21 -21 42 -38 47 -38 6 0 20 16 32 35 32 49 48 45 48 -13 0 -55 14 -76 42&#10;-61 16 9 18 23 18 120 0 93 -3 111 -17 116 -16 6 -51 -25 -100 -92 l-23 -30&#10;-32 36 c-18 19 -43 47 -55 62 -22 25 -52 36 -54 20z"/>
<path d="M5953 1133 c-9 -3 -13 -36 -13 -113 0 -131 1 -132 118 -128 75 3 77&#10;4 77 28 0 24 -3 25 -69 30 -43 3 -71 10 -74 17 -4 15 37 33 74 33 28 0 44 28&#10;23 41 -8 5 -31 7 -52 4 -28 -4 -39 -2 -44 11 -9 24 10 35 58 36 24 0 55 4 68&#10;9 19 8 21 12 11 24 -9 11 -33 15 -89 14 -42 0 -82 -3 -88 -6z"/>
<path d="M6229 1136 c-7 -7 -1 -225 6 -236 3 -5 12 -7 20 -3 11 4 15 22 15 69&#10;0 84 7 84 80 -1 60 -70 75 -79 94 -59 22 22 23 206 1 224 -25 20 -35 1 -35&#10;-65 0 -35 -4 -66 -9 -69 -4 -3 -32 22 -61 57 -71 83 -94 100 -111 83z"/>
<path d="M6533 1125 c-8 -21 0 -27 44 -34 l38 -6 3 -93 c2 -83 5 -92 22 -92&#10;23 0 29 20 32 115 l3 69 43 9 c42 8 56 29 26 41 -9 3 -58 6 -110 6 -76 0 -96&#10;-3 -101 -15z"/>
</g>
</svg>