<?xml version="1.0" standalone="no"?>
<!DOCTYPE svg PUBLIC "-//W3C//DTD SVG 20010904//EN"
 "http://www.w3.org/TR/2001/REC-SVG-20010904/DTD/svg10.dtd">
<svg version="1.0" xmlns="http://www.w3.org/2000/svg"
 width="2091.000000pt" height="1749.000000pt" viewBox="0 0 2091.000000 1749.000000"
 preserveAspectRatio="xMidYMid meet">
<metadata>
Created by potrace 1.10, written by Peter Selinger 2001-2011
</metadata>
<g transform="translate(0.000000,1749.000000) scale(0.100000,-0.100000)"
fill="#000000" stroke="none">
<path d="M6506 15649 c-14 -17 -26 -42 -26 -56 0 -34 28 -79 58 -93 15 -6 21
-15 16 -20 -5 -4 -65 -18 -134 -29 -187 -31 -362 -80 -478 -132 -34 -16 -66
-29 -71 -29 -8 0 -54 -23 -169 -86 -285 -156 -606 -471 -755 -739 -176 -318
-266 -608 -286 -923 -23 -350 39 -691 180 -989 21 -47 39 -86 39 -88 0 -10
135 -232 157 -260 14 -16 47 -59 75 -95 66 -85 146 -170 233 -247 64 -56 87
-75 179 -146 50 -38 164 -105 321 -186 276 -144 716 -225 1040 -192 61 7 135
14 165 17 30 3 81 11 113 19 155 40 185 48 220 61 20 8 56 21 80 30 65 24 287
133 335 165 24 16 46 29 49 29 17 0 248 186 327 264 225 223 356 420 491 741
96 229 167 694 120 784 -34 67 -137 51 -158 -24 -3 -11 -11 -81 -17 -155 -37
-470 -211 -853 -541 -1190 -95 -97 -273 -241 -334 -271 -11 -5 -35 -18 -54
-30 -63 -38 -206 -110 -246 -125 -296 -107 -569 -147 -843 -124 -175 14 -362
49 -462 85 -205 74 -392 173 -545 288 -87 66 -305 281 -354 349 -129 181 -231
359 -261 457 -5 14 -18 51 -30 81 -12 30 -26 74 -31 98 -5 24 -11 48 -15 53
-14 24 -44 205 -54 330 -12 164 7 427 41 554 12 44 25 96 29 115 4 19 18 60
30 90 12 30 25 67 30 81 4 14 12 34 18 45 6 10 24 46 40 79 74 155 160 288
257 394 112 124 157 169 230 228 88 71 225 165 275 190 8 4 35 18 60 33 42 24
162 76 240 105 143 51 444 115 461 98 6 -6 -7 -27 -31 -52 -46 -48 -52 -89
-20 -131 15 -20 28 -25 62 -25 39 0 56 10 205 122 89 67 168 132 177 145 39
56 12 97 -123 188 -62 41 -119 80 -128 85 -10 6 -35 22 -56 38 -55 37 -98 36
-131 -4z"/>
<path d="M7358 15360 c-64 -34 -76 -136 -21 -180 53 -41 106 -38 154 10 54 53
31 145 -43 175 -47 18 -45 19 -90 -5z"/>
<path d="M7782 15112 c-50 -47 -54 -101 -12 -155 42 -53 142 -44 180 17 29 49
26 80 -16 126 -32 35 -42 40 -79 40 -33 0 -50 -6 -73 -28z"/>
<path d="M8185 14798 c-51 -28 -65 -50 -65 -104 0 -46 4 -55 30 -77 55 -47 95
-47 149 -1 27 23 31 32 31 78 0 42 -5 57 -22 73 -47 42 -85 52 -123 31z"/>
<path d="M8445 14402 c-46 -28 -57 -47 -57 -97 -1 -51 22 -84 73 -105 36 -15
69 -7 108 26 27 22 31 33 31 73 0 53 -18 84 -60 106 -38 20 -59 19 -95 -3z"/>
<path d="M7293 14056 c-264 -88 -362 -125 -360 -135 2 -13 94 -78 137 -98 31
-14 80 -56 80 -69 0 -7 -49 -64 -109 -126 -59 -62 -131 -137 -159 -167 -28
-29 -57 -51 -64 -48 -12 4 -132 84 -351 234 -70 48 -117 66 -117 46 0 -5 -17
-26 -38 -48 -22 -22 -63 -69 -92 -105 -29 -36 -58 -69 -64 -75 -13 -11 -225
-255 -325 -374 -36 -42 -82 -94 -103 -116 -21 -22 -38 -49 -37 -60 0 -13 28
-43 77 -83 42 -34 91 -76 109 -92 18 -17 36 -30 41 -30 9 0 168 176 382 420
36 41 79 90 96 109 l31 35 32 -20 c17 -10 117 -77 222 -148 l191 -130 90 95
c232 242 408 427 440 462 20 20 43 37 52 37 9 0 67 -31 130 -70 115 -70 130
-77 140 -62 3 5 -1 76 -9 158 -8 82 -15 183 -15 224 -1 101 -26 340 -36 349
-5 4 -172 -47 -371 -113z"/>
<path d="M8578 13977 c-57 -47 -59 -127 -5 -173 27 -22 38 -25 80 -21 66 6 97
40 97 108 0 41 -4 51 -35 78 -44 39 -97 42 -137 8z"/>
<path d="M10845 10634 c-112 -15 -179 -29 -240 -51 -38 -13 -79 -27 -90 -31
-11 -3 -40 -17 -65 -32 -25 -14 -52 -29 -60 -32 -31 -12 -170 -139 -212 -195
-214 -279 -246 -712 -80 -1053 81 -165 252 -321 430 -392 142 -57 220 -71 402
-72 167 -1 260 13 348 50 18 8 49 16 70 19 35 5 39 2 80 -48 24 -30 74 -87
111 -128 l68 -74 34 17 c19 9 53 23 77 32 56 21 122 46 150 57 43 17 37 36
-34 116 -126 140 -194 222 -194 235 0 6 18 33 39 58 49 58 117 186 141 265 43
143 45 161 45 320 0 183 -11 248 -63 385 -43 111 -108 213 -188 293 -49 49
-135 117 -149 117 -2 0 -26 13 -52 28 -26 16 -57 31 -68 34 -11 4 -45 16 -75
28 -103 39 -325 68 -425 54z m261 -370 c73 -23 112 -44 177 -92 76 -57 127
-128 168 -232 33 -84 34 -87 34 -240 0 -164 -7 -200 -66 -325 -44 -94 -181
-209 -299 -250 -80 -28 -300 -26 -382 3 -174 62 -290 195 -352 401 -22 73 -22
265 0 340 59 200 180 329 369 392 69 23 282 25 351 3z"/>
<path d="M1550 10591 c0 -11 6 -35 14 -53 23 -53 42 -105 91 -243 26 -71 53
-148 62 -170 16 -43 38 -99 58 -155 7 -19 27 -71 43 -115 16 -44 32 -89 35
-100 3 -11 15 -45 27 -75 28 -74 49 -130 60 -160 5 -14 18 -50 30 -80 12 -30
24 -66 27 -80 3 -14 9 -29 13 -35 4 -5 19 -44 33 -85 14 -41 36 -100 47 -130
12 -30 25 -66 30 -80 5 -14 18 -50 30 -80 12 -30 26 -68 30 -84 5 -16 16 -39
25 -52 15 -24 16 -24 209 -24 218 0 211 -2 239 80 9 25 26 70 37 100 12 30 24
66 27 80 3 14 9 30 13 35 4 6 19 44 33 85 14 41 35 100 47 130 22 58 52 141
100 275 16 44 39 105 50 135 12 30 25 66 30 80 5 14 18 50 30 80 12 30 27 73
35 95 7 22 27 78 45 125 17 47 35 96 40 110 5 14 18 50 30 80 12 30 25 66 30
80 11 30 31 85 60 160 36 92 50 85 -167 88 -221 3 -196 14 -238 -111 -13 -40
-47 -137 -75 -217 -28 -80 -62 -176 -75 -215 -14 -38 -40 -115 -60 -170 -20
-55 -40 -113 -45 -130 -5 -16 -25 -75 -45 -130 -20 -55 -40 -113 -45 -130 -25
-84 -73 -212 -85 -224 -17 -18 -32 -8 -38 26 -2 16 -28 93 -56 173 -29 80 -56
159 -60 176 -5 18 -12 37 -16 44 -4 7 -11 26 -16 44 -4 17 -31 96 -59 176 -28
80 -62 177 -75 215 -12 39 -27 81 -33 95 -15 41 -33 93 -42 125 -5 17 -26 80
-48 140 l-38 110 -197 3 c-191 2 -197 2 -197 -17z"/>
<path d="M3825 10601 c-7 -12 -7 -1790 0 -1802 7 -10 1003 -13 1029 -3 14 5
16 29 16 165 0 87 -1 160 -2 161 -2 1 -154 5 -338 8 l-335 5 -3 189 c-2 133 1
193 9 203 10 11 61 13 288 12 152 0 282 -1 289 0 9 1 12 40 12 161 0 121 -3
160 -12 160 -7 1 -137 0 -289 0 -227 -1 -278 2 -288 13 -8 10 -11 71 -9 208
l3 194 335 5 335 5 5 153 c3 84 4 157 2 162 -5 13 -1039 14 -1047 1z"/>
<path d="M5512 9703 l3 -908 171 -3 c135 -2 174 0 182 11 8 10 13 131 14 398
l3 384 50 3 c28 1 55 -1 61 -5 9 -7 114 -179 114 -188 0 -2 14 -24 30 -48 17
-25 30 -47 30 -50 0 -3 47 -85 105 -182 58 -98 105 -179 105 -182 0 -3 14 -25
30 -50 17 -24 30 -48 30 -53 0 -5 10 -16 22 -24 19 -13 58 -16 225 -16 238 0
234 -3 158 107 -25 35 -45 65 -45 67 0 2 -54 83 -120 181 -66 98 -120 179
-120 181 0 2 -27 42 -60 89 -33 47 -60 88 -60 91 0 4 -13 23 -30 44 -37 47
-38 66 -2 75 15 3 60 22 99 42 88 42 157 113 204 210 32 66 33 72 32 188 -1
179 -46 299 -151 401 -74 72 -149 104 -312 134 -25 5 -208 9 -408 9 l-362 1 2
-907z m680 583 c55 -9 86 -20 113 -40 59 -46 75 -80 75 -166 0 -115 -45 -171
-166 -204 -60 -16 -283 -23 -318 -10 -14 5 -16 33 -16 208 0 144 3 205 12 214
16 16 199 15 300 -2z"/>
<path d="M7254 10597 c-2 -7 -3 -80 -2 -162 l3 -150 210 -5 210 -5 5 -730 c3
-401 9 -736 13 -742 12 -19 340 -18 356 0 8 10 12 225 13 743 l3 729 210 5
210 5 0 160 0 160 -613 3 c-496 2 -614 0 -618 -11z"/>
<path d="M9027 10604 c-12 -12 -8 -1773 3 -1795 10 -18 23 -19 185 -19 162 0
175 1 185 19 7 14 9 307 8 908 l-3 888 -186 3 c-102 1 -188 -1 -192 -4z"/>
<path d="M2757 8203 c-3 -21 -40 -101 -82 -177 -65 -118 -74 -141 -62 -153 11
-11 22 -10 73 13 42 19 83 28 140 31 80 6 82 5 99 -21 23 -34 65 -36 65 -3 0
12 -6 31 -14 42 -15 22 -77 137 -125 232 -30 58 -45 73 -76 73 -7 0 -15 -16
-18 -37z m88 -150 c41 -73 39 -75 -72 -88 -66 -7 -68 2 -17 92 40 73 46 72 89
-4z"/>
<path d="M4868 8214 c-85 -44 -127 -148 -93 -230 22 -54 58 -89 118 -114 119
-51 257 10 293 130 13 46 13 57 0 104 -17 56 -39 82 -101 115 -58 30 -154 28
-217 -5z m191 -54 c105 -53 87 -197 -29 -235 -46 -15 -54 -15 -99 0 -55 18
-74 35 -96 88 -15 35 -14 41 4 82 34 77 137 108 220 65z"/>
<path d="M7745 8225 c-16 -9 -38 -25 -47 -36 -20 -23 -24 -80 -8 -108 14 -27
83 -51 146 -51 106 0 143 -59 63 -102 -47 -25 -93 -23 -150 8 -40 22 -51 25
-64 14 -21 -17 -18 -32 8 -51 42 -31 119 -51 166 -44 85 13 128 43 141 101 18
80 -23 120 -131 130 -92 8 -107 12 -118 33 -8 14 -5 23 10 40 22 24 100 29
142 10 18 -8 30 -8 46 1 80 42 -121 97 -204 55z"/>
<path d="M10600 8222 c-46 -25 -64 -62 -55 -113 6 -36 12 -43 49 -60 26 -12
64 -19 103 -19 50 0 67 -4 89 -23 23 -20 25 -26 15 -45 -29 -55 -116 -67 -192
-26 -46 25 -49 26 -65 9 -17 -17 -17 -19 9 -41 38 -33 126 -57 174 -48 94 18
143 62 143 129 0 70 -64 105 -191 105 -26 0 -46 7 -60 21 l-21 21 23 24 c26
27 89 33 146 12 28 -10 36 -10 50 5 16 16 16 18 -3 38 -32 31 -165 38 -214 11z"/>
<path d="M3157 8223 c-4 -3 -7 -84 -7 -180 l0 -173 25 0 c25 0 29 9 26 56 -1
11 8 32 19 47 20 25 27 27 96 27 41 0 89 6 107 14 59 24 92 104 65 156 -24 46
-70 59 -204 60 -66 0 -124 -3 -127 -7z m243 -66 c15 -8 26 -23 28 -39 5 -42
-39 -59 -141 -56 l-82 3 -3 32 c-6 62 9 73 96 73 42 0 88 -6 102 -13z"/>
<path d="M3657 8224 c-11 -11 -8 -339 2 -349 6 -6 69 -9 145 -7 l136 3 0 29 0
29 -112 3 -113 3 0 35 c0 31 4 36 35 47 19 7 56 12 83 12 44 1 47 3 47 27 l0
26 -82 -3 -83 -4 0 45 0 45 85 3 c116 3 132 7 128 35 -3 21 -7 22 -134 25 -71
1 -133 -1 -137 -4z"/>
<path d="M4097 8213 c4 -10 28 -44 55 -76 26 -32 48 -68 48 -80 -1 -12 -28
-53 -61 -92 -52 -61 -70 -97 -46 -96 4 1 18 1 31 1 17 0 36 15 66 53 61 76 66
77 111 26 21 -24 39 -47 39 -51 0 -12 54 -35 73 -31 28 7 20 25 -43 104 -54
67 -73 112 -52 121 12 5 102 119 102 129 0 5 -15 9 -34 9 -30 0 -40 -7 -73
-50 -21 -27 -43 -49 -50 -50 -6 0 -24 14 -40 31 -15 18 -36 40 -45 50 -11 12
-32 19 -53 19 -29 0 -33 -3 -28 -17z"/>
<path d="M5356 8214 c-9 -24 -7 -317 3 -332 5 -8 17 -12 27 -10 16 3 20 14 22
61 4 68 19 82 102 94 42 6 56 13 58 27 6 27 -11 33 -75 25 -34 -3 -63 -2 -70
4 -17 13 -17 62 0 75 7 6 53 12 103 14 89 3 89 3 92 31 l3 27 -129 0 c-109 0
-131 -3 -136 -16z"/>
<path d="M5980 8211 c-11 -21 -14 -298 -4 -325 8 -21 50 -21 58 0 3 9 6 82 6
164 0 82 -3 155 -6 164 -8 22 -41 20 -54 -3z"/>
<path d="M6208 8073 c3 -198 5 -205 40 -201 l27 3 3 103 c2 81 6 104 18 109 9
3 21 -3 30 -15 14 -20 115 -142 144 -173 27 -30 60 -42 76 -28 12 10 14 43 12
183 l-3 171 -25 0 -25 0 -3 -117 c-3 -129 -11 -143 -52 -90 -12 15 -60 69
-107 120 -66 72 -91 92 -111 92 l-27 0 3 -157z"/>
<path d="M6710 8216 c0 -8 16 -49 36 -93 19 -43 39 -87 44 -98 68 -157 67
-155 109 -155 31 0 44 6 60 26 12 15 21 31 21 36 0 5 11 33 24 61 13 29 40 89
61 134 38 82 39 103 6 103 -25 0 -43 -24 -80 -110 -18 -41 -43 -96 -54 -122
-11 -27 -26 -48 -32 -48 -10 0 -30 33 -59 100 -8 19 -24 56 -35 82 -12 26 -21
51 -21 56 0 16 -36 42 -58 42 -12 0 -22 -6 -22 -14z"/>
<path d="M7255 8217 c-3 -7 -4 -87 -3 -177 l3 -165 141 -3 c120 -2 143 0 148
13 14 38 -2 44 -117 47 l-112 3 0 35 c0 31 4 36 35 47 19 7 56 12 83 12 44 1
47 3 47 27 l0 26 -82 -3 -83 -4 0 45 0 45 85 3 c116 3 132 7 128 35 -3 21 -7
22 -136 25 -102 2 -134 0 -137 -11z"/>
<path d="M8102 8203 c3 -26 6 -28 58 -31 30 -2 60 -8 67 -14 9 -7 13 -47 13
-143 0 -106 3 -135 15 -145 12 -10 18 -10 30 0 11 9 15 44 17 154 l3 141 45 3
c77 4 92 10 88 35 -3 22 -6 22 -171 25 l-168 2 3 -27z"/>
<path d="M8547 8224 c-3 -3 -2 -17 4 -31 5 -13 9 -87 9 -163 0 -113 3 -142 16
-154 37 -38 54 -9 54 96 0 109 9 112 80 23 28 -36 56 -65 60 -65 13 0 53 45
81 91 39 63 53 49 59 -56 l5 -90 32 -3 31 -3 4 163 c2 90 8 171 12 181 8 16 5
18 -25 15 -28 -2 -42 -14 -87 -73 -69 -90 -101 -125 -115 -125 -7 0 -37 35
-67 76 -30 42 -65 87 -77 100 -20 22 -62 32 -76 18z"/>
<path d="M9170 8210 c0 -11 -1 -85 -1 -165 0 -80 1 -152 1 -160 0 -13 20 -15
143 -13 l142 3 3 27 3 27 -113 3 -113 3 -3 32 c-4 40 16 52 101 61 55 6 62 10
65 30 4 24 3 24 -80 21 l-83 -4 0 45 0 45 97 3 c100 3 125 13 112 46 -5 14
-26 16 -140 16 -127 0 -134 -1 -134 -20z"/>
<path d="M9596 8213 c4 -10 11 -90 14 -178 l5 -160 27 -3 27 -3 3 108 c4 131
13 137 78 56 65 -81 154 -173 167 -173 6 0 19 7 27 16 13 13 16 43 16 169 0
84 -3 160 -6 169 -3 9 -17 16 -30 16 -27 0 -27 -3 -24 -112 2 -81 -7 -130 -25
-126 -6 2 -49 46 -95 98 -108 125 -125 140 -162 140 -25 0 -29 -3 -22 -17z"/>
<path d="M10096 8214 c-11 -28 13 -44 63 -44 26 0 52 -5 59 -12 8 -8 12 -56
12 -150 l0 -138 24 0 c13 0 27 7 30 16 3 9 6 71 6 139 0 87 4 126 13 133 7 6
37 12 67 14 51 3 55 5 55 28 l0 25 -161 3 c-143 2 -162 1 -168 -14z"/>
</g>
</svg>
